<svg width="20" height="20" viewBox="0 0 20 20" fill="none" xmlns="http://www.w3.org/2000/svg">
<circle cx="10" cy="10" r="10" fill="#E6E7E8"/>
<path d="M13.7261 7.05972C13.9431 6.84276 13.9431 6.491 13.7261 6.27405C13.5092 6.05709 13.1574 6.05709 12.9405 6.27405L9.99997 9.21454L7.05948 6.27405C6.84252 6.05709 6.49076 6.05709 6.2738 6.27405C6.05684 6.491 6.05684 6.84276 6.2738 7.05972L9.2143 10.0002L6.2738 12.9407C6.05684 13.1577 6.05684 13.5094 6.2738 13.7264C6.49076 13.9433 6.84252 13.9433 7.05948 13.7264L9.99997 10.7859L12.9405 13.7264C13.1574 13.9433 13.5092 13.9433 13.7261 13.7264C13.9431 13.5094 13.9431 13.1577 13.7261 12.9407L10.7856 10.0002L13.7261 7.05972Z" fill="white"/>
</svg>
