<svg width="20" height="20" viewBox="0 0 20 20" fill="none" xmlns="http://www.w3.org/2000/svg">
<g clip-path="url(#clip0_6562_53632)">
<path d="M4.16699 11.9066C2.62419 12.5872 1.66699 13.5356 1.66699 14.5846C1.66699 16.6557 5.39795 18.3346 10.0003 18.3346C14.6027 18.3346 18.3337 16.6557 18.3337 14.5846C18.3337 13.5356 17.3765 12.5872 15.8337 11.9066M15.0003 6.66797C15.0003 10.0544 11.2503 11.668 10.0003 14.168C8.75033 11.668 5.00033 10.0544 5.00033 6.66797C5.00033 3.90654 7.2389 1.66797 10.0003 1.66797C12.7617 1.66797 15.0003 3.90654 15.0003 6.66797ZM10.8337 6.66797C10.8337 7.12821 10.4606 7.5013 10.0003 7.5013C9.54009 7.5013 9.16699 7.12821 9.16699 6.66797C9.16699 6.20773 9.54009 5.83464 10.0003 5.83464C10.4606 5.83464 10.8337 6.20773 10.8337 6.66797Z" stroke="#333F48" stroke-width="1.5" stroke-linecap="round" stroke-linejoin="round"/>
</g>
<defs>
<clipPath id="clip0_6562_53632">
<rect width="20" height="20" fill="white"/>
</clipPath>
</defs>
</svg>
