<svg width="20" height="20" viewBox="0 0 20 20" fill="none" xmlns="http://www.w3.org/2000/svg">
<path d="M11.6667 5.83203H13.6145C13.8183 5.83203 13.9202 5.83203 14.0161 5.85506C14.1011 5.87547 14.1824 5.90914 14.257 5.95483C14.3411 6.00637 14.4131 6.07843 14.5573 6.22256L17.9429 9.60817C18.087 9.7523 18.1591 9.82436 18.2106 9.90846C18.2563 9.98302 18.29 10.0643 18.3104 10.1493C18.3334 10.2452 18.3334 10.3472 18.3334 10.551V12.9154C18.3334 13.3036 18.3334 13.4978 18.27 13.6509C18.1854 13.8551 18.0232 14.0174 17.819 14.1019C17.6658 14.1654 17.4717 14.1654 17.0834 14.1654M12.9167 14.1654H11.6667M11.6667 14.1654V5.9987C11.6667 5.06528 11.6667 4.59857 11.4851 4.24205C11.3253 3.92844 11.0703 3.67348 10.7567 3.51369C10.4002 3.33203 9.9335 3.33203 9.00008 3.33203H4.33341C3.39999 3.33203 2.93328 3.33203 2.57676 3.51369C2.26316 3.67348 2.00819 3.92844 1.8484 4.24205C1.66675 4.59857 1.66675 5.06528 1.66675 5.9987V12.4987C1.66675 13.4192 2.41294 14.1654 3.33341 14.1654M11.6667 14.1654H8.33341M8.33341 14.1654C8.33341 15.5461 7.21413 16.6654 5.83341 16.6654C4.4527 16.6654 3.33341 15.5461 3.33341 14.1654M8.33341 14.1654C8.33341 12.7847 7.21413 11.6654 5.83341 11.6654C4.4527 11.6654 3.33341 12.7847 3.33341 14.1654M17.0834 14.582C17.0834 15.7326 16.1507 16.6654 15.0001 16.6654C13.8495 16.6654 12.9167 15.7326 12.9167 14.582C12.9167 13.4314 13.8495 12.4987 15.0001 12.4987C16.1507 12.4987 17.0834 13.4314 17.0834 14.582Z" stroke="#333F48" stroke-width="1.5" stroke-linecap="round" stroke-linejoin="round"/>
</svg>
