<svg width="25" height="24" viewBox="0 0 25 24" fill="none" xmlns="http://www.w3.org/2000/svg">
<path d="M4.10001 7.4L3.40001 15.8C3.20001 17.6 3.20001 18.5 3.50001 19.2C3.80001 19.8 4.20001 20.3 4.80001 20.6C5.50001 21 6.40001 21 8.20001 21H16.8C18.6 21 19.5 21 20.2 20.6C20.8 20.3 21.3 19.8 21.5 19.2C21.8 18.5 21.7 17.6 21.6 15.8L20.9 7.4C20.8 5.8 20.7 5.1 20.4 4.5C20.1 4 19.6 3.6 19.1 3.3C18.4 3 17.6 3 16.1 3H8.90001C7.30001 3 6.60001 3 5.90001 3.3C5.40001 3.6 5.00001 4 4.70001 4.5C4.30001 5.1 4.30001 5.8 4.10001 7.4Z" stroke="#333F48" stroke-width="1.5" stroke-linecap="round" stroke-linejoin="round"/>
<path d="M13.447 11.0533H16.5L14.0312 12.9467L14.9735 16L12.5047 14.1066L10.0265 16L10.9688 12.9467L8.5 11.0533H11.553L12.5047 8L13.447 11.0533Z" fill="#333F48"/>
</svg>
